<?xml version="1.0" standalone="no"?>
<svg class="icon" viewBox="0 0 1024 1024" version="1.1" xmlns="http://www.w3.org/2000/svg">
    <path d="M896 106.666667H128C81.066667 106.666667 42.666667 145.066667 42.666667 192v640c0 46.933333 38.4 85.333333 85.333333 85.333333h768c46.933333 0 85.333333-38.4 85.333333-85.333333V192c0-46.933333-38.4-85.333333-85.333333-85.333333z m0 725.333333H128V192h768v640z"
    />
    <path d="M684.8 475.733333l19.2-12.8V640c0 23.466667 19.2 42.666667 42.666667 42.666667s42.666667-19.2 42.666666-42.666667V384c0-14.933333-8.533333-29.866667-21.333333-38.4-12.8-6.4-29.866667-6.4-42.666667 2.133333l-85.333333 55.466667c-19.2 12.8-25.6 38.4-12.8 59.733333 10.666667 19.2 38.4 25.6 57.6 12.8zM279.466667 475.733333l19.2-12.8V640c0 23.466667 19.2 42.666667 42.666666 42.666667s42.666667-19.2 42.666667-42.666667V384c0-14.933333-8.533333-29.866667-21.333333-38.4-12.8-6.4-29.866667-6.4-42.666667 2.133333l-85.333333 55.466667c-19.2 12.8-25.6 38.4-12.8 59.733333 10.666667 19.2 38.4 25.6 57.6 12.8zM512 640c23.466667 0 42.666667-19.2 42.666667-42.666667v-21.333333c0-23.466667-19.2-42.666667-42.666667-42.666667s-42.666667 19.2-42.666667 42.666667v21.333333c0 23.466667 19.2 42.666667 42.666667 42.666667zM512 490.666667c23.466667 0 42.666667-19.2 42.666667-42.666667v-21.333333c0-23.466667-19.2-42.666667-42.666667-42.666667s-42.666667 19.2-42.666667 42.666667v21.333333c0 23.466667 19.2 42.666667 42.666667 42.666667z"
    />
</svg>