<?xml version="1.0" encoding="utf-8"?>
<svg width="575.642" height="94" viewBox="0 0 575.642 94" fill="none" xmlns="http://www.w3.org/2000/svg">
  <g>
    <path d="M58.5247 1.39648C65.9495 -2.20672 75.4489 1.50567 79.2704 8.60289C96.0854 36.9918 112.682 65.4898 129.279 93.9879C121.526 93.9879 113.665 94.0971 106.021 93.6603C95.867 76.1902 85.2758 58.9385 75.1213 41.4685C71.9549 35.8999 67.9149 31.0956 64.8576 25.527C53.8297 43.3247 43.2384 61.1223 32.3196 79.0291C46.2957 79.0291 60.3809 79.0291 74.4662 79.0291C77.4143 83.9426 80.3623 88.9652 83.2012 93.8787C55.4675 93.8787 27.7337 93.8787 0 93.8787C16.269 66.3633 32.9748 39.0663 49.2438 11.7693C51.5367 7.6202 54.1572 3.25268 58.5247 1.39648C58.5247 1.39648 58.5247 1.39648 58.5247 1.39648C58.5247 1.39648 58.5247 1.39648 58.5247 1.39648Z" fill="#E60012" fill-rule="evenodd" />
    <path d="M0 0.335109C29.8768 -0.319128 59.6446 0.22607 89.4124 0.00799045C98.1355 0.11703 106.968 -0.210088 115.691 0.335109C115.691 5.24188 115.691 10.1487 115.691 15.0554C100.752 15.7097 85.8141 15.1645 70.8756 15.3826C70.8756 41.552 70.8756 67.8305 70.8756 94C64.7694 94 58.5542 94 52.3389 94C52.3389 67.8305 52.3389 41.552 52.3389 15.3826C37.6186 15.1645 23.0073 15.8187 8.28699 15.0554C5.67005 10.0396 2.83501 5.13285 0 0.335109C0 0.335109 0 0.335109 0 0.335109C0 0.335109 0 0.335109 0 0.335109Z" fill="#E60012" fill-rule="evenodd" transform="translate(94 0)" />
    <path d="M47 17.3C30.6 17.3 17.3 30.6 17.3 47C17.3 63.4 30.6 76.7 47 76.7C63.4 76.7 76.7 63.4 76.7 47C76.7 30.6 63.4 17.3 47 17.3C47 17.3 47 17.3 47 17.3C47 17.3 47 17.3 47 17.3ZM47 94C21.1 94 0 72.9 0 47C0 21.1 21.1 0 47 0C72.9 0 94 21.1 94 47C94 72.9 72.9 94 47 94C47 94 47 94 47 94C47 94 47 94 47 94Z" fill="#E60012" fill-rule="evenodd" transform="translate(208.8 0)" />
    <path d="M97.3571 35.7373L69.9585 87.0691L62.7028 87.0691L33.5714 31.1889L20.7926 93.8917L0 93.8917L19.7097 0L39.9608 0L65.6268 44.5092L68.0093 44.5092L93.1337 0L114.251 0L133.311 94L112.302 94L99.8479 31.2972L97.3571 35.7373L97.3571 35.7373Z" fill="#E60012" fill-rule="evenodd" transform="translate(315.1 0)" />
    <path d="M18.242 0C18.242 25.7534 18.242 68.2466 18.242 94C12.2329 94 6.11646 94 0 94C0 68.2466 0 25.7534 0 3.07005e-06C0 3.07005e-06 18.242 0 18.242 0Z" fill="#E60012" fill-rule="evenodd" transform="translate(557.4 0)" />
    <path d="M50.4027 94C50.4027 94 41.7896 94 41.7896 94C18.7149 94 0 74.6471 0 50.8281C0 50.8281 0 0 0 0L18.2896 0C18.2896 0 18.2896 50.9344 18.2896 50.9344C18.2896 64.5453 28.9231 75.8167 41.7896 75.8167C41.7896 75.8167 50.4027 75.8167 50.4027 75.8167C63.4819 75.8167 73.9026 64.7579 73.9026 50.9344C73.9026 50.9344 73.9026 0 73.9026 0L92.1923 0C92.1923 0 92.1923 50.9344 92.1923 50.9344C92.405 74.6471 73.5837 94 50.4027 94C50.4027 94 50.4027 94 50.4027 94L50.4027 94Z" fill="#E60012" fill-rule="evenodd" transform="translate(450.6 0)" />
  </g>
</svg>